<svg id="Component_45_1" data-name="Component 45 – 1" xmlns="http://www.w3.org/2000/svg" xmlns:xlink="http://www.w3.org/1999/xlink" width="284" height="165" viewBox="0 0 284 165">
  <defs>
    <radialGradient id="radial-gradient" cx="0.5" cy="0.5" r="0.5" gradientUnits="objectBoundingBox">
      <stop offset="0" stop-color="#9e9e9e"/>
      <stop offset="1"/>
    </radialGradient>
    <linearGradient id="linear-gradient" x1="0.5" x2="0.5" y2="1" gradientUnits="objectBoundingBox">
      <stop offset="0"/>
      <stop offset="1" stop-color="#545454"/>
    </linearGradient>
  </defs>
  <g id="Polygon_1" data-name="Polygon 1" transform="translate(142) rotate(90)" fill="url(#radial-gradient)">
    <path d="M 147.6249237060547 141.5 L 17.37508010864258 141.5 C 13.93525981903076 141.5 10.85723972320557 139.7201080322266 9.141380310058594 136.7388000488281 C 7.425539970397949 133.7574768066406 7.432799816131592 130.2019195556641 9.160820007324219 127.2276382446289 L 74.28572082519531 15.1338357925415 C 76.00559997558594 12.17355537414551 79.07636260986328 10.40621566772461 82.5 10.40621566772461 C 85.92363739013672 10.40621566772461 88.99437713623047 12.17355537414551 90.71425628662109 15.1338357925415 L 155.8391876220703 127.2276153564453 C 157.5671997070313 130.2018890380859 157.574462890625 133.7574768066406 155.8586273193359 136.7388000488281 C 154.1427612304688 139.7201080322266 151.0647430419922 141.5 147.6249237060547 141.5 Z" stroke="none"/>
    <path d="M 82.5 10.90618896484375 C 79.25656127929688 10.90618896484375 76.34741973876953 12.58052062988281 74.71804046630859 15.38499450683594 L 9.593124389648438 127.4788131713867 C 7.9560546875 130.2965393066406 7.949172973632813 133.6649780273438 9.574737548828125 136.4893798828125 C 11.20028686523438 139.3137817382813 14.11630249023438 141 17.37507629394531 141 L 147.6249084472656 141 C 150.8836822509766 141 153.7997131347656 139.3137817382813 155.4252624511719 136.4893798828125 C 157.0507965087891 133.6649780273438 157.0439147949219 130.2965393066406 155.4068603515625 127.4787979125977 L 90.28193664550781 15.38499450683594 C 88.65255737304688 12.58052062988281 85.74343872070313 10.90618896484375 82.5 10.90618896484375 M 82.5 9.906204223632813 C 85.85955810546875 9.906204223632813 89.21910858154297 11.56501770019531 91.14659881591797 14.88262939453125 L 156.2715148925781 126.976432800293 C 160.1447448730469 133.6430511474609 155.3350219726563 142 147.6249084472656 142 L 17.37507629394531 142 C 9.66497802734375 142 4.855255126953125 133.6430511474609 8.72845458984375 126.9764556884766 L 73.85337829589844 14.88262939453125 C 75.7808837890625 11.56501770019531 79.14044189453125 9.906204223632813 82.5 9.906204223632813 Z" stroke="none" fill="#707070"/>
  </g>
  <g id="Polygon_2" data-name="Polygon 2" transform="translate(142 165) rotate(-90)" fill="url(#radial-gradient)">
    <path d="M 147.6249237060547 141.5 L 17.37508010864258 141.5 C 13.93525981903076 141.5 10.85723972320557 139.7201080322266 9.141380310058594 136.7388000488281 C 7.425539970397949 133.7574768066406 7.432799816131592 130.2019195556641 9.160820007324219 127.2276382446289 L 74.28572082519531 15.1338357925415 C 76.00559997558594 12.17355537414551 79.07636260986328 10.40621566772461 82.5 10.40621566772461 C 85.92363739013672 10.40621566772461 88.99437713623047 12.17355537414551 90.71425628662109 15.1338357925415 L 155.8391876220703 127.2276153564453 C 157.5671997070313 130.2018890380859 157.574462890625 133.7574768066406 155.8586273193359 136.7388000488281 C 154.1427612304688 139.7201080322266 151.0647430419922 141.5 147.6249237060547 141.5 Z" stroke="none"/>
    <path d="M 82.5 10.90618896484375 C 79.25656127929688 10.90618896484375 76.34741973876953 12.58052062988281 74.71804046630859 15.38499450683594 L 9.593124389648438 127.4788131713867 C 7.9560546875 130.2965393066406 7.949172973632813 133.6649780273438 9.574737548828125 136.4893798828125 C 11.20028686523438 139.3137817382813 14.11630249023438 141 17.37507629394531 141 L 147.6249084472656 141 C 150.8836822509766 141 153.7997131347656 139.3137817382813 155.4252624511719 136.4893798828125 C 157.0507965087891 133.6649780273438 157.0439147949219 130.2965393066406 155.4068603515625 127.4787979125977 L 90.28193664550781 15.38499450683594 C 88.65255737304688 12.58052062988281 85.74343872070313 10.90618896484375 82.5 10.90618896484375 M 82.5 9.906204223632813 C 85.85955810546875 9.906204223632813 89.21910858154297 11.56501770019531 91.14659881591797 14.88262939453125 L 156.2715148925781 126.976432800293 C 160.1447448730469 133.6430511474609 155.3350219726563 142 147.6249084472656 142 L 17.37507629394531 142 C 9.66497802734375 142 4.855255126953125 133.6430511474609 8.72845458984375 126.9764556884766 L 73.85337829589844 14.88262939453125 C 75.7808837890625 11.56501770019531 79.14044189453125 9.906204223632813 82.5 9.906204223632813 Z" stroke="none" fill="#707070"/>
  </g>
  <g id="Rectangle_120" data-name="Rectangle 120" transform="translate(107.5 63.5)" stroke="#707070" stroke-width="1" fill="url(#linear-gradient)">
    <rect width="69" height="38" rx="5" stroke="none"/>
    <rect x="0.5" y="0.5" width="68" height="37" rx="4.5" fill="none"/>
  </g>
</svg>
